<svg width="23" height="24" viewBox="0 0 23 24" fill="none" xmlns="http://www.w3.org/2000/svg">
<path d="M17.0382 17.9963C15.6757 19.7668 13.5618 20.904 11.1805 20.904H11.1551C8.76107 20.904 6.63448 19.7409 5.28467 17.9575L11.1678 12.0129L17.0382 17.9963Z" fill="#349A89"/>
<path fill-rule="evenodd" clip-rule="evenodd" d="M16.8854 2.12677C18.579 3.13477 19.9161 4.50462 20.9094 6.24923C21.9026 7.99385 22.3865 9.93231 22.3738 12.0775V21.2788C22.3738 21.8732 22.1828 22.3772 21.788 22.7778C21.406 23.1785 20.9094 23.3723 20.3109 23.3723C19.7251 23.3723 19.2285 23.1785 18.8337 22.7778C18.439 22.3902 18.2479 21.8862 18.2479 21.2788V21.2012C17.8659 21.5114 17.4457 21.7828 17.0127 22.0412C15.3191 23.0105 13.3835 23.5015 11.2187 23.5015C9.05393 23.5015 7.11835 23.0234 5.41198 22.0412C3.70562 21.072 2.36854 19.7151 1.42622 17.9834C1.41985 17.9769 1.41667 17.9672 1.41348 17.9575C1.4103 17.9478 1.40712 17.9382 1.40075 17.9317L1.36255 17.9188C0.993258 17.1951 0.700375 16.4455 0.483895 15.6702C0.464794 15.5926 0.445693 15.5183 0.426592 15.444C0.407491 15.3697 0.38839 15.2954 0.369288 15.2178C0.362921 15.1855 0.356554 15.1565 0.350187 15.1274C0.34382 15.0983 0.337453 15.0692 0.331086 15.0369C0.28015 14.8431 0.241949 14.6363 0.203747 14.4295L0.203745 14.4295C0.203745 14.4166 0.200562 14.4037 0.197378 14.3908C0.194195 14.3778 0.191011 14.3649 0.191011 14.352C0.152809 14.1194 0.114607 13.8868 0.0891386 13.6542V13.6283C0.0636704 13.3828 0.0382022 13.1372 0.0254682 12.8788V12.8658C0.0127341 12.6074 0 12.336 0 12.0775C0 9.93231 0.483895 7.99385 1.46442 6.24923C2.44494 4.50462 3.79476 3.13477 5.51386 2.12677C7.23296 1.13169 9.13034 0.627693 11.2187 0.627693C13.3071 0.627693 15.1918 1.11877 16.8854 2.12677ZM3.3236 12.0517C3.3236 16.4714 6.85094 20.0382 11.1933 20.0382C15.5356 20.0382 19.0629 16.4714 19.0629 12.0517C19.0629 7.632 15.5483 4.06523 11.1933 4.06523C6.8382 4.06523 3.3236 7.64492 3.3236 12.0517Z" fill="#262525"/>
</svg>
